<svg xmlns="http://www.w3.org/2000/svg" version="1.1" xmlns:xlink="http://www.w3.org/1999/xlink" xmlns:svgjs="http://svgjs.dev/svgjs" width="1000" height="623" viewBox="0 0 1000 623"><g transform="matrix(1,0,0,1,-0.6060606060606233,0.2522267206477409)"><svg viewBox="0 0 396 247" data-background-color="#ffffff" preserveAspectRatio="xMidYMid meet" height="623" width="1000" xmlns="http://www.w3.org/2000/svg" xmlns:xlink="http://www.w3.org/1999/xlink"><g id="tight-bounds" transform="matrix(1,0,0,1,0.2400000000000091,-0.09999999999999432)"><svg viewBox="0 0 395.52 247.2" height="247.2" width="395.52"><g><svg></svg></g><g><svg viewBox="0 0 395.52 247.2" height="247.2" width="395.52"><g transform="matrix(1,0,0,1,75.54432,77.37838852830188)"><svg viewBox="0 0 244.43135999999998 92.44322294339622" height="92.44322294339622" width="244.43135999999998"><g><svg viewBox="0 0 244.43136 92.44322294339624" height="92.44322294339622" width="244.43135999999998"><g><svg viewBox="0 0 244.43136 92.44322294339624" height="92.44322294339624" width="244.43136"><g id="textblocktransform"><svg viewBox="0 0 244.43136 92.44322294339624" height="92.44322294339624" width="244.43136" id="textblock"><g><svg viewBox="0 0 244.43136 92.44322294339624" height="92.44322294339624" width="244.43136"><g><svg viewBox="0 0 244.43136 92.44322294339624" height="92.44322294339624" width="244.43136"><g transform="matrix(1,0,0,1,0,0)"><svg width="244.43136" viewBox="4.099999904632568 -34.95000076293945 119.23999786376953 45.099998474121094" height="92.44322294339624" data-palette-color="#66b8d9"><path d="M6.55 0L4.1 0 4.1-34.95 6.55-34.95 6.55-18.9 28.15-18.9 28.15-34.95 30.6-34.95 30.6 0 28.15 0 28.15-16.75 6.55-16.75 6.55 0ZM51.35 10.15L48.95 10.15 48.95 0.55Q46.25 0.35 43.92-1.03 41.6-2.4 40.17-4.83 38.75-7.25 38.75-10.6L38.75-10.6 38.75-25.5 41.15-25.5 41.15-10.75Q41.15-7.75 42.45-5.65 43.75-3.55 45.8-2.5 47.85-1.45 50.1-1.45L50.1-1.45Q52.45-1.45 54.52-2.53 56.6-3.6 57.92-5.68 59.25-7.75 59.25-10.75L59.25-10.75 59.25-25.5 61.55-25.5 61.55-10.6Q61.55-7.2 60.15-4.78 58.75-2.35 56.4-1.03 54.05 0.3 51.35 0.55L51.35 0.55 51.35 10.15ZM81.05 0.65L81.05 0.65Q78.1 0.65 75.47-0.68 72.85-2 71.25-4.5 69.65-7 69.65-10.6L69.65-10.6 69.65-25.5 72.05-25.5 72.05-10.75Q72.05-7.75 73.35-5.65 74.65-3.55 76.7-2.5 78.75-1.45 81-1.45L81-1.45Q83.35-1.45 85.42-2.53 87.5-3.6 88.8-5.68 90.1-7.75 90.1-10.75L90.1-10.75 90.1-25.5 92.5-25.5 92.5-10.6Q92.5-7 90.9-4.5 89.3-2 86.7-0.68 84.1 0.65 81.05 0.65ZM102.94 0L100.59 0 100.59-14.9Q100.59-18.5 102.19-21 103.79-23.5 106.39-24.83 108.99-26.15 111.94-26.15L111.94-26.15Q114.99-26.15 117.57-24.83 120.14-23.5 121.74-21 123.34-18.5 123.34-14.9L123.34-14.9 123.34 0 120.94 0 120.94-14.75Q120.94-17.75 119.67-19.83 118.39-21.9 116.32-22.98 114.24-24.05 111.94-24.05L111.94-24.05Q109.64-24.05 107.59-23 105.54-21.95 104.24-19.88 102.94-17.8 102.94-14.75L102.94-14.75 102.94 0Z" opacity="1" transform="matrix(1,0,0,1,0,0)" fill="#66b8d9" class="undefined-text-0" data-fill-palette-color="primary" id="text-0"></path></svg></g></svg></g></svg></g></svg></g></svg></g></svg></g></svg></g><path d="M221.302 71.378L221.302 18.507 11.117 18.507 11.117 228.693 221.302 228.693 221.302 175.822 212.966 175.822 212.966 220.356 19.453 220.356 19.453 26.844 212.966 26.844 212.966 71.378Z" fill="#66b8d9" stroke="transparent" data-fill-palette-color="primary"></path></svg></g><defs></defs></svg><rect width="395.52" height="247.2" fill="none" stroke="none" visibility="hidden"></rect></g></svg></g></svg>